<?xml version="1.0" encoding="UTF-8" standalone="no"?>
<!-- Created with Inkscape (http://www.inkscape.org/) -->

<svg
   version="1.1"
   id="svg9"
   width="900"
   height="550.66669"
   viewBox="0 0 900 550.66669"
   sodipodi:docname="olhodemanga.svg"
   inkscape:version="1.2.1 (9c6d41e410, 2022-07-14)"
   xmlns:inkscape="http://www.inkscape.org/namespaces/inkscape"
   xmlns:sodipodi="http://sodipodi.sourceforge.net/DTD/sodipodi-0.dtd"
   xmlns="http://www.w3.org/2000/svg"
   xmlns:svg="http://www.w3.org/2000/svg">
  <defs
     id="defs13">
    <filter
       inkscape:collect="always"
       style="color-interpolation-filters:sRGB"
       id="filter6257"
       x="-0.0099027826"
       y="-0.016033792"
       width="1.0198056"
       height="1.0320676">
      <feGaussianBlur
         inkscape:collect="always"
         stdDeviation="0.74458591"
         id="feGaussianBlur6259" />
    </filter>
    <filter
       inkscape:collect="always"
       style="color-interpolation-filters:sRGB"
       id="filter7397"
       x="-0.027005919"
       y="-0.057668361"
       width="1.0540118"
       height="1.1153367">
      <feGaussianBlur
         inkscape:collect="always"
         stdDeviation="2.0743336"
         id="feGaussianBlur7399" />
    </filter>
    <filter
       inkscape:collect="always"
       style="color-interpolation-filters:sRGB"
       id="filter7889"
       x="-0.02555224"
       y="-0.2785883"
       width="1.0511045"
       height="1.5571766">
      <feGaussianBlur
         inkscape:collect="always"
         stdDeviation="0.25202529"
         id="feGaussianBlur7891" />
    </filter>
    <filter
       inkscape:collect="always"
       style="color-interpolation-filters:sRGB"
       id="filter7895"
       x="-0.019941381"
       y="-0.30396286"
       width="1.0398828"
       height="1.6079257">
      <feGaussianBlur
         inkscape:collect="always"
         stdDeviation="0.32283568"
         id="feGaussianBlur7897" />
    </filter>
  </defs>
  <sodipodi:namedview
     id="namedview11"
     pagecolor="#ffffff"
     bordercolor="#000000"
     borderopacity="0.25"
     inkscape:showpageshadow="2"
     inkscape:pageopacity="0.0"
     inkscape:pagecheckerboard="0"
     inkscape:deskcolor="#d1d1d1"
     showgrid="false"
     showguides="false"
     inkscape:zoom="5.9128327"
     inkscape:cx="455.78831"
     inkscape:cy="230.68469"
     inkscape:window-width="1920"
     inkscape:window-height="1017"
     inkscape:window-x="-8"
     inkscape:window-y="-8"
     inkscape:window-maximized="1"
     inkscape:current-layer="g15" />
  <g
     inkscape:groupmode="layer"
     inkscape:label="Image"
     id="g15">
    <path
       style="fill:#000000;stroke:none;stroke-opacity:1;fill-opacity:1"
       d="m 209.9974,179.02398 c 28.90472,-10.5574 58.75252,-19.70018 91.24603,-24.87441 29.58748,-4.37888 59.11938,-8.67437 86.94083,-10.4042 27.51988,-0.93848 54.96125,-2.19098 83.35319,0.35877 25.79125,1.35772 51.58251,4.24454 77.37376,9.20831 l 20.21045,3.34848 c 30.32778,5.62849 58.66549,13.24706 85.38619,22.48264 l 0.47835,1.67424 v 0.95671 l -0.59794,0.59794 -0.71753,0.23918 C 616.55174,176.16479 582.91666,170.94429 548.31326,166.3476 l -88.85425,-5.97942 -26.30947,-0.11959 -50.58594,1.31547 c -20.85501,1.12106 -41.3002,2.54949 -58.59836,6.33819 l -35.39819,7.17531 c -16.69332,4.22238 -33.66374,9.13749 -52.14059,17.81869 l 3.70724,7.05572 9.92585,15.78568 16.86198,23.55893 12.79597,16.38363 23.20017,24.87441 30.37547,28.82082 0.71753,1.55465 -0.23917,0.71754 -0.71753,0.47835 -0.95671,0.23918 h -0.71753 c -18.07752,-10.68437 -34.88098,-26.46492 -52.14059,-40.42092 -12.46571,-11.21281 -24.48646,-22.87059 -35.15902,-35.87655 -4.07861,-4.97035 -17.4406,-22.12008 -26.90741,-39.4642 l -6.93613,-14.47021 -0.83712,-2.033 z"
       id="path235"
       sodipodi:nodetypes="ccccccccccccccccccccccccccccccscccc" />
    <path
       style="fill:#000000;stroke:none;stroke-opacity:1;fill-opacity:1"
       d="m 561.15236,168.27806 c -0.56011,9.54945 -0.77435,19.83638 -2.19861,29.2584 l -2.19861,14.54463 c -1.01043,4.84821 -1.6052,7.63223 -3.72072,14.71376 -1.46465,4.9028 -4.12264,12.74172 -6.59582,17.92711 -4.0819,8.5583 -8.24848,17.27677 -14.54464,26.04505 -6.9031,10.86927 -14.85465,19.23145 -27.9054,28.75102 -6.87009,5.01124 -13.92614,8.76598 -24.86118,11.83865 -7.1794,2.01736 -18.63521,3.65502 -30.61139,2.19862 -11.24699,-1.36773 -23.34644,-6.23312 -31.28788,-11.16217 -8.87846,-5.51063 -17.31556,-12.67662 -25.03031,-21.81695 -7.30009,-8.64905 -13.48773,-18.12163 -18.94184,-29.42752 -2.7783,-5.75916 -6.0432,-14.86141 -8.96356,-23.33907 -3.63999,-11.06016 -7.39865,-29.37952 -7.94881,-37.54545 -0.82838,-12.29548 -0.34055,-18.2136 -1.01474,-26.55242 l 10.48566,-1.01474 0.33825,13.86814 c 0.48328,10.09105 1.38177,20.18209 3.21335,30.27314 2.92796,12.90977 7.3897,25.81955 13.02252,38.72932 6.76567,12.64637 14.56669,24.83259 25.36856,35.68509 6.86617,6.09162 14.9758,12.4588 25.0303,16.405 8.68345,3.63908 17.62515,5.30512 27.73628,5.41195 11.92941,0.12605 24.34938,-4.54195 34.83948,-11.33128 10.47258,-6.77799 18.62805,-15.76042 26.38329,-25.0303 8.45005,-11.46462 13.94176,-23.65923 18.77273,-35.85422 3.38392,-8.54215 5.52318,-17.54437 7.27232,-26.72154 1.19124,-7.99781 2.7605,-16.21175 2.8751,-24.69206 l 0.16912,-12.51515 z"
       id="path6086"
       sodipodi:nodetypes="cscsscsssssscscccccccsscscscc" />
    <path
       style="fill:#83d471;stroke:none;stroke-opacity:1;fill-opacity:1;filter:url(#filter6257)"
       d="m 548.29896,196.35259 -40.92793,-4.56634 c 0,0 -1.50144,6.78385 -2.36773,10.14742 -0.56975,2.2122 -1.18893,4.41234 -1.86037,6.59582 -0.78598,2.55596 -1.54083,5.12891 -2.53685,7.61057 -1.27743,3.18281 -2.72124,6.30961 -4.39722,9.3018 -1.81093,3.23312 -6.08845,9.3018 -6.08845,9.3018 l -3.72072,4.56634 -2.70598,3.04423 -5.91932,4.39722 c -1.89723,1.40937 -9.03875,5.25556 -10.6548,5.41195 l -5.24283,0.50737 h -6.08845 c -2.703,-0.16615 -5.60032,-0.5266 -9.64005,-2.02948 -4.27632,-1.85146 -9.88416,-6.00709 -13.69902,-9.64005 -2.08979,-2.76039 -3.81282,-4.7482 -5.91932,-7.44145 -4.13117,-5.28186 -5.76881,-7.69136 -7.44145,-11.66953 L 406.57332,192.1245 367.844,195.84521 c 0.53346,3.51712 0.88771,7.34223 1.86036,12.17691 l 3.04422,11.83866 c 3.01157,9.18083 4.95875,14.32279 6.93408,19.44922 2.54854,6.61403 7.70768,16.00221 11.66953,21.64784 l 6.76494,9.64004 8.45618,9.47093 6.25758,5.41196 5.75021,4.39721 c 0,0 6.64333,4.39214 9.9783,6.08845 4.69974,2.3905 14.26274,5.3556 14.54463,5.07371 4.27376,1.32706 6.58446,1.34541 9.64005,1.86036 2.21378,0 8.04086,0.33825 10.65479,0.33825 l 4.05897,-0.50737 c 23.79361,-4.66259 37.77744,-16.94159 49.04587,-30.10402 11.07515,-12.93666 17.37244,-25.22423 22.1552,-37.71457 5.91881,-13.59125 8.67327,-26.3195 9.64005,-38.5602 z"
       id="path6090"
       sodipodi:nodetypes="ccsssscccssccccssccccssccccsccccscc" />
    <path
       style="fill:#000000;fill-opacity:1;stroke:none;stroke-opacity:1"
       d="m 505.51067,188.91115 1.69123,1.69123 -1.69123,6.4267 -0.50737,2.79054 -0.76106,3.04423 -1.01474,3.29791 -0.84562,2.79054 -1.09931,3.88985 -1.52211,4.31265 c -1.03532,2.33193 -2.15406,4.74729 -3.63616,7.526 -2.29658,4.41296 -3.66125,7.61084 -8.03338,12.68428 -4.75132,5.51346 -10.34848,11.87702 -21.90151,14.37551 -11.22615,2.16079 -22.36294,1.6323 -35.0086,-12.51515 -8.25501,-9.23538 -13.26745,-18.83657 -16.65868,-28.07453 -2.83471,-7.72195 -5.06009,-13.10027 -7.44144,-19.44922 l -1.09931,-2.62142 0.84562,-1.26843 2.19861,-0.93018 2.53685,-0.25368 0.76106,0.33824 0.76106,2.4523 c 0,0 0.0846,0.84562 0.25368,1.43755 0.16913,0.59193 0.33825,0.33825 0.6765,1.7758 0.33825,1.43755 0.50737,1.26842 0.84562,2.70598 0.33824,1.43755 0.59193,1.60667 0.59193,2.02948 0,0.42281 0,0.50737 0.67649,1.43755 0.6765,0.93018 1.09931,1.43755 1.43756,1.94492 0.33824,0.50737 0.76105,0.50737 0.84561,1.43755 0.0846,0.93018 0.42281,2.11405 0.42281,2.11405 0,0 0.50737,1.0993 0.76106,1.60668 0.25368,0.50737 0.84562,1.69123 0.93018,2.1986 0.0846,0.50737 -0.16912,0.0846 0.59193,1.86036 0.76106,1.7758 1.18387,2.11405 1.18387,2.11405 l 0.42281,1.26843 0.59193,1.43755 c 0,0 0.16912,0.25368 0.33825,0.67649 0.16912,0.42281 0.50737,3.21335 0.50737,3.21335 0,0 2.60718,4.51671 4.05897,6.68039 2.08887,3.11315 4.14258,6.28864 6.68038,9.04811 2.25806,2.45529 7.52601,6.59583 7.52601,6.59583 4.40308,2.47559 8.24305,5.42044 15.22113,5.7502 4.66806,0.2206 19.96698,-3.8937 25.87592,-12.34603 6.77614,-8.31367 8.5828,-14.46852 10.82391,-19.95659 2.60028,-6.36759 4.27906,-13.58627 5.91933,-19.78747 l 0.50737,-3.04423 0.50737,-1.86036 1.18387,-1.18386 1.18387,-0.16912 z"
       id="path6146"
       sodipodi:nodetypes="ccccccccccscsscccccccssssssscssscccscsscscscccccc" />
    <ellipse
       style="fill:#ffffff;fill-opacity:1;stroke:none;stroke-width:0.560288;stroke-opacity:1"
       id="path6200-3"
       cx="503.90399"
       cy="245.06021"
       rx="12.988696"
       ry="13.260695" />
    <path
       style="fill:#31941c;fill-opacity:1;stroke:none;stroke-opacity:1;filter:url(#filter7397)"
       d="m 366.66013,163.20435 56.31818,-2.53686 c 42.63945,-1.9207 85.35108,2.50056 128.02662,6.4267 l -2.1986,29.08927 -41.09706,-4.90458 -1.52211,-2.53686 -2.53685,-0.50737 -1.18387,0.50737 -0.84562,1.52211 -1.18386,2.02949 -1.18387,5.07371 c -1.2041,5.1604 -2.61589,10.04755 -4.22809,14.88288 -2.28925,6.86596 -6.00869,13.17537 -10.48567,19.11098 -4.79664,6.35942 -10.70168,12.97225 -21.64783,14.88288 -7.21594,1.19737 -14.43189,-1.436 -21.64783,-6.08845 -5.2286,-4.64407 -9.70016,-10.4237 -14.03727,-16.405 l -3.04422,-5.07371 c 0,0 3.60814,-3.35129 4.90458,-5.41196 0.87523,-1.39117 1.38702,-2.99238 1.86037,-4.56633 0.57951,-1.92693 1.46179,-3.92643 1.18386,-5.91933 -0.49524,-3.55115 0.18287,-6.35612 -1.86036,-9.47093 -2.37935,-3.62722 -3.57886,-7.22241 -9.9783,-9.80917 -3.6549,-1.94506 -7.78921,-2.45191 -12.34602,-1.69124 l -9.30181,4.39722 -5.24283,6.93407 -26.04505,3.21335 c -0.87033,-3.99176 -0.20783,-11.75787 -0.67649,-17.75799 z"
       id="path6315"
       sodipodi:nodetypes="csccccccccsssccccssssccccccc" />
    <path
       style="fill:#000000;fill-opacity:1;stroke:#000000;stroke-opacity:1;filter:url(#filter7889)"
       d="m 368.0934,195.76637 26.54864,-3.94642 z"
       id="path7455" />
    <ellipse
       style="fill:#ffffff;fill-opacity:1;stroke:none;stroke-width:0.870939;stroke-opacity:1"
       id="path6200"
       cx="411.52744"
       cy="202.03271"
       rx="20.19025"
       ry="20.613058" />
    <path
       style="fill:#000000;fill-opacity:1;stroke:#000000;stroke-opacity:1;filter:url(#filter7895)"
       d="m 548.55244,195.88596 -41.37762,-4.1856 z"
       id="path7893" />
  </g>
</svg>
